<svg xmlns="http://www.w3.org/2000/svg" viewBox="0 0 64 64" fill="none">
  <circle cx="36" cy="10" r="6" fill="#FFFFFF"/>
  <path d="M31 19C31 15.7 33.7 13 37 13H39C42.3 13 45 15.7 45 19V30H33C31.9 30 31 29.1 31 28V19Z" fill="#FFFFFF"/>
  <path d="M34 30L27 40.5C25.8 42.2 23.4 42.5 21.7 41.3C20 40.1 19.7 37.7 20.9 36L28.2 24.8L34 30Z" fill="#FFFFFF"/>
  <path d="M40 31L48.5 37.2C50.2 38.4 50.6 40.8 49.4 42.5C48.2 44.2 45.8 44.6 44.1 43.4L35.6 37.2L40 31Z" fill="#FFFFFF"/>
  <path d="M34.5 38L30.2 53.5C29.6 55.5 27.6 56.7 25.6 56.2C23.6 55.6 22.4 53.6 22.9 51.6L27.4 35.6L34.5 38Z" fill="#FFFFFF"/>
  <path d="M40.8 39.2L48.6 53.1C49.6 54.9 48.9 57.2 47.1 58.2C45.3 59.2 43 58.5 42 56.7L34.3 43L40.8 39.2Z" fill="#FFFFFF"/>
</svg>
