<svg xmlns="http://www.w3.org/2000/svg" viewBox="0 0 64 64" fill="none">
  <circle cx="38" cy="10.5" r="6.2" fill="#FFFFFF"/>
  <path d="M31 19.2C31 15.8 33.8 13 37.2 13H40C43.4 13 46.2 15.8 46.2 19.2V28.8H33.4C32.1 28.8 31 27.7 31 26.4V19.2Z" fill="#FFFFFF"/>
  <path d="M34.8 28.8L26 39.8C24.6 41.5 22 41.8 20.3 40.4C18.6 39 18.3 36.4 19.7 34.7L28.6 23.5L34.8 28.8Z" fill="#FFFFFF"/>
  <path d="M40.4 30L50.3 36.6C52.1 37.8 52.6 40.3 51.4 42.1C50.2 43.9 47.7 44.4 45.9 43.2L36 36.6L40.4 30Z" fill="#FFFFFF"/>
  <path d="M35.4 37.8L30.4 53.8C29.8 55.8 27.7 56.9 25.7 56.3C23.7 55.7 22.6 53.6 23.2 51.6L28.5 34.7L35.4 37.8Z" fill="#FFFFFF"/>
  <path d="M41.2 38.7L49.9 52.4C51 54.1 50.5 56.6 48.8 57.7C47.1 58.8 44.6 58.3 43.5 56.6L34.8 42.9L41.2 38.7Z" fill="#FFFFFF"/>
</svg>
