{
  "accessors": [
    {
      "bufferView": 2,
      "componentType": 5126,
      "count": 65532,
      "max": [
        0.324537992477417,
        0.16307899355888367,
        1.3458369970321655
      ],
      "min": [
        -0.31248798966407776,
        -0.15813300013542175,
        0.9200469851493835
      ],
      "type": "VEC3"
    },
    {
      "bufferView": 2,
      "byteOffset": 786384,
      "componentType": 5126,
      "count": 65532,
      "max": [
        0.9999912977218628,
        0.999997615814209,
        0.9999910593032837
      ],
      "min": [
        -0.9999547004699707,
        -0.9999995231628418,
        -0.9409996271133423
      ],
      "type": "VEC3"
    },
    {
      "bufferView": 3,
      "componentType": 5126,
      "count": 65532,
      "max": [
        1.0,
        0.9999997615814209,
        0.9999999403953552,
        1.0
      ],
      "min": [
        -1.0,
        -1.0,
        -1.0,
        -1.0
      ],
      "type": "VEC4"
    },
    {
      "bufferView": 1,
      "componentType": 5126,
      "count": 65532,
      "max": [
        0.9813050031661987,
        0.7731860280036926
      ],
      "min": [
        0.04040300101041794,
        0.03761899843811989
      ],
      "type": "VEC2"
    },
    {
      "bufferView": 0,
      "componentType": 5125,
      "count": 353217,
      "type": "SCALAR"
    },
    {
      "bufferView": 2,
      "byteOffset": 1572768,
      "componentType": 5126,
      "count": 65532,
      "max": [
        0.324537992477417,
        0.16117200255393982,
        1.6308540105819702
      ],
      "min": [
        -0.24786800146102905,
        -0.1554110050201416,
        0.9314529895782471
      ],
      "type": "VEC3"
    },
    {
      "bufferView": 2,
      "byteOffset": 2359152,
      "componentType": 5126,
      "count": 65532,
      "max": [
        0.999997615814209,
        0.9999997615814209,
        0.9998486638069153
      ],
      "min": [
        -0.9999979734420776,
        -0.9999988079071045,
        -0.999997615814209
      ],
      "type": "VEC3"
    },
    {
      "bufferView": 3,
      "byteOffset": 1048512,
      "componentType": 5126,
      "count": 65532,
      "max": [
        0.9999997615814209,
        1.0,
        1.0,
        1.0
      ],
      "min": [
        -1.0,
        -1.0,
        -1.0,
        -1.0
      ],
      "type": "VEC4"
    },
    {
      "bufferView": 1,
      "byteOffset": 524256,
      "componentType": 5126,
      "count": 65532,
      "max": [
        0.9606660008430481,
        0.9578760266304016
      ],
      "min": [
        0.06775899976491928,
        0.08628199994564056
      ],
      "type": "VEC2"
    },
    {
      "bufferView": 0,
      "byteOffset": 1412868,
      "componentType": 5125,
      "count": 357243,
      "type": "SCALAR"
    },
    {
      "bufferView": 2,
      "byteOffset": 3145536,
      "componentType": 5126,
      "count": 65532,
      "max": [
        0.2442460060119629,
        0.16117200255393982,
        1.6244670152664185
      ],
      "min": [
        -0.30834001302719116,
        -0.1571889966726303,
        0.9321810007095337
      ],
      "type": "VEC3"
    },
    {
      "bufferView": 2,
      "byteOffset": 3931920,
      "componentType": 5126,
      "count": 65532,
      "max": [
        0.9999979734420776,
        0.9999940395355225,
        0.9999135732650757
      ],
      "min": [
        -0.9999934434890747,
        -1.0,
        -0.9999971389770508
      ],
      "type": "VEC3"
    },
    {
      "bufferView": 3,
      "byteOffset": 2097024,
      "componentType": 5126,
      "count": 65532,
      "max": [
        1.0,
        1.0,
        0.9999999403953552,
        1.0
      ],
      "min": [
        -1.0,
        -0.9999998211860657,
        -0.9999999403953552,
        -1.0
      ],
      "type": "VEC4"
    },
    {
      "bufferView": 1,
      "byteOffset": 1048512,
      "componentType": 5126,
      "count": 65532,
      "max": [
        0.9606660008430481,
        0.9578760266304016
      ],
      "min": [
        0.06775899976491928,
        0.08628199994564056
      ],
      "type": "VEC2"
    },
    {
      "bufferView": 0,
      "byteOffset": 2841840,
      "componentType": 5125,
      "count": 346632,
      "type": "SCALAR"
    },
    {
      "bufferView": 2,
      "byteOffset": 4718304,
      "componentType": 5126,
      "count": 41297,
      "max": [
        0.23290599882602692,
        0.16106200218200684,
        1.6240160465240479
      ],
      "min": [
        -0.23378999531269073,
        -0.009379999712109566,
        0.9324790239334106
      ],
      "type": "VEC3"
    },
    {
      "bufferView": 2,
      "byteOffset": 5213868,
      "componentType": 5126,
      "count": 41297,
      "max": [
        0.9999895095825195,
        0.9999697208404541,
        0.9575201869010925
      ],
      "min": [
        -0.9999788999557495,
        -0.9999916553497314,
        -0.9406456351280212
      ],
      "type": "VEC3"
    },
    {
      "bufferView": 3,
      "byteOffset": 3145536,
      "componentType": 5126,
      "count": 41297,
      "max": [
        0.9641112089157104,
        0.9997159242630005,
        0.7921251654624939,
        1.0
      ],
      "min": [
        -0.9999997019767761,
        -0.9994477033615112,
        -0.9999927878379822,
        -1.0
      ],
      "type": "VEC4"
    },
    {
      "bufferView": 1,
      "byteOffset": 1572768,
      "componentType": 5126,
      "count": 41297,
      "max": [
        0.9606660008430481,
        0.639611005783081
      ],
      "min": [
        0.517570972442627,
        0.08628199994564056
      ],
      "type": "VEC2"
    },
    {
      "bufferView": 0,
      "byteOffset": 4228368,
      "componentType": 5125,
      "count": 221958,
      "type": "SCALAR"
    }
  ],
  "asset": {
    "extras": {
      "author": "kylelhb (https://sketchfab.com/kylelhb)",
      "license": "CC-BY-4.0 (http://creativecommons.org/licenses/by/4.0/)",
      "source": "https://sketchfab.com/3d-models/oversized-t-shirt-3b6e78d6a1a74370a6e5af6f312d38f7",
      "title": "Oversized t-shirt"
    },
    "generator": "Sketchfab-15.77.0",
    "version": "2.0"
  },
  "bufferViews": [
    {
      "buffer": 0,
      "byteLength": 5116200,
      "name": "floatBufferViews",
      "target": 34963
    },
    {
      "buffer": 0,
      "byteLength": 1903144,
      "byteOffset": 5116200,
      "byteStride": 8,
      "name": "floatBufferViews",
      "target": 34962
    },
    {
      "buffer": 0,
      "byteLength": 5709432,
      "byteOffset": 7019344,
      "byteStride": 12,
      "name": "floatBufferViews",
      "target": 34962
    },
    {
      "buffer": 0,
      "byteLength": 3806288,
      "byteOffset": 12728776,
      "byteStride": 16,
      "name": "floatBufferViews",
      "target": 34962
    }
  ],
  "buffers": [
    {
      "byteLength": 16535064,
      "uri": "scene.bin"
    }
  ],
  "extensionsUsed": [
    "KHR_materials_specular"
  ],
  "images": [
    {
      "uri": "textures/Material.001_baseColor.png"
    },
    {
      "uri": "textures/Material.001_metallicRoughness.png"
    },
    {
      "uri": "textures/Material.001_normal.png"
    }
  ],
  "materials": [
    {
      "doubleSided": true,
      "extensions": {
        "KHR_materials_specular": {
          "specularColorFactor": [
            1.0,
            1.0,
            1.0
          ],
          "specularFactor": 0.0
        }
      },
      "name": "Material.001",
      "normalTexture": {
        "index": 2,
        "scale": 0.6628591629993539
      },
      "pbrMetallicRoughness": {
        "baseColorTexture": {
          "index": 0
        },
        "metallicRoughnessTexture": {
          "index": 1
        }
      }
    }
  ],
  "meshes": [
    {
      "name": "Object_0",
      "primitives": [
        {
          "attributes": {
            "NORMAL": 1,
            "POSITION": 0,
            "TANGENT": 2,
            "TEXCOORD_0": 3
          },
          "indices": 4,
          "material": 0,
          "mode": 4
        }
      ]
    },
    {
      "name": "Object_1",
      "primitives": [
        {
          "attributes": {
            "NORMAL": 6,
            "POSITION": 5,
            "TANGENT": 7,
            "TEXCOORD_0": 8
          },
          "indices": 9,
          "material": 0,
          "mode": 4
        }
      ]
    },
    {
      "name": "Object_2",
      "primitives": [
        {
          "attributes": {
            "NORMAL": 11,
            "POSITION": 10,
            "TANGENT": 12,
            "TEXCOORD_0": 13
          },
          "indices": 14,
          "material": 0,
          "mode": 4
        }
      ]
    },
    {
      "name": "Object_3",
      "primitives": [
        {
          "attributes": {
            "NORMAL": 16,
            "POSITION": 15,
            "TANGENT": 17,
            "TEXCOORD_0": 18
          },
          "indices": 19,
          "material": 0,
          "mode": 4
        }
      ]
    }
  ],
  "nodes": [
    {
      "children": [
        1
      ],
      "matrix": [
        1.0,
        0.0,
        0.0,
        0.0,
        0.0,
        2.220446049250313e-16,
        -1.0,
        0.0,
        0.0,
        1.0,
        2.220446049250313e-16,
        0.0,
        0.0,
        0.0,
        0.0,
        1.0
      ],
      "name": "Sketchfab_model"
    },
    {
      "children": [
        2,
        3,
        4,
        5
      ],
      "name": "oversized-tshirt.obj.cleaner.materialmerger.gles"
    },
    {
      "mesh": 0,
      "name": "Object_2"
    },
    {
      "mesh": 1,
      "name": "Object_3"
    },
    {
      "mesh": 2,
      "name": "Object_4"
    },
    {
      "mesh": 3,
      "name": "Object_5"
    }
  ],
  "samplers": [
    {
      "magFilter": 9729,
      "minFilter": 9987,
      "wrapS": 10497,
      "wrapT": 10497
    }
  ],
  "scene": 0,
  "scenes": [
    {
      "name": "Sketchfab_Scene",
      "nodes": [
        0
      ]
    }
  ],
  "textures": [
    {
      "sampler": 0,
      "source": 0
    },
    {
      "sampler": 0,
      "source": 1
    },
    {
      "sampler": 0,
      "source": 2
    }
  ]
}
